<svg width="638" height="379" viewBox="0 0 638 379" fill="none" xmlns="http://www.w3.org/2000/svg">
<path opacity="0.53" d="M58.7709 157.851C67.0102 150.841 95.6555 151.527 112.416 151.527C129.176 151.527 162.236 152.269 171.334 163.804C180.431 175.339 155.171 187.622 116.068 187.622C76.966 187.622 34.307 178.683 58.7709 157.851Z" fill="#99ADF9"/>
<path d="M520.701 191.708C520.701 191.708 581.012 192.999 602.764 196.672C624.516 200.345 652.2 227.089 627.977 255.247C603.753 283.404 567.884 280.116 466.211 280.116C483.624 224.274 520.701 191.708 520.701 191.708Z" fill="#99ADF9"/>
<path d="M135.424 204.788C135.424 204.788 101.691 199.254 55.0221 206.326C26.3493 210.672 -1.8223 225.99 0.779947 247.914C4.58376 280.04 81.2574 267.825 101.711 285.533C122.166 303.241 77.5909 308.411 65.0877 326.949C52.5846 345.488 63.9548 370.645 122.372 374.469C180.788 378.294 362.286 380.244 404.218 374.984C446.149 369.725 471.904 320.619 405.138 294.212C300.89 272.975 135.424 204.788 135.424 204.788Z" fill="#99ADF9"/>
<path d="M550.671 217.366C550.671 271.56 470.043 315.496 319.881 315.496C169.72 315.496 93.3005 271.553 93.3005 217.366C93.3005 163.179 169.761 119.236 319.881 119.236C470.002 119.236 550.671 163.172 550.671 217.366Z" fill="#F0F6FF"/>
<path opacity="0.36" d="M217.584 170.752C217.584 170.752 135.101 179.06 129.169 289.295C161.797 347.623 290.33 333.788 290.33 333.788C290.33 333.788 285.462 222.042 329.604 161.147C421.335 164.113 486.59 163.207 511.308 286.796C561.733 261.09 565.612 205.138 565.612 205.138C565.612 205.138 540.894 126.04 504.806 117.142C468.718 108.244 410.383 119.119 410.383 119.119L217.584 170.752Z" fill="#FF97C9"/>
<g style="mix-blend-mode:multiply" opacity="0.64">
<path d="M479.175 177.495C479.175 204.019 423.752 225.523 320.568 225.523C217.384 225.523 164.797 204.019 164.797 177.495C164.797 150.971 217.357 129.474 320.568 129.474C423.779 129.474 479.175 150.985 479.175 177.495Z" fill="#E1ECFF"/>
</g>
<path d="M391.824 184.629C391.824 184.629 401.931 196.054 403.25 205.282C404.568 214.51 403.469 225.935 414.235 229.67C425.001 233.405 453.372 235.603 462.133 224.397C470.894 213.192 464.99 195.175 449.17 181.553C427.885 162.657 403.689 161.119 403.689 161.119L391.824 184.629Z" fill="#FEC272"/>
<g style="mix-blend-mode:multiply" opacity="0.45">
<path d="M388.666 206.696C388.666 206.696 433.982 203.195 432.952 155.269C398.278 156.986 380.475 181.216 380.475 181.216L388.666 206.696Z" fill="#FEC272"/>
</g>
<path d="M240.784 184.629C240.784 184.629 250.891 196.054 252.209 205.282C253.527 214.51 252.429 225.935 263.195 229.67C273.961 233.405 302.332 235.603 311.093 224.397C319.854 213.192 313.949 195.175 298.13 181.553C276.845 162.657 252.649 161.119 252.649 161.119L240.784 184.629Z" fill="#FEC272"/>
<g style="mix-blend-mode:multiply" opacity="0.45">
<path d="M251.241 172.201C251.241 172.201 274.716 211.125 317.08 188.68C299.977 158.469 270.329 153.436 270.329 153.436L251.241 172.201Z" fill="#FEC272"/>
</g>
<path d="M373.924 16.5744C380.104 16.7804 399.748 15.3454 407.946 39.5277C416.144 63.7101 422.495 81.3422 433.563 97.1205C444.631 112.899 455.906 141.592 433.563 161.662C411.221 181.731 384.999 176.85 372.908 170.897C360.817 164.944 346.46 155.105 349.948 121.509C353.436 87.9131 364.092 67.404 365.321 48.9549C366.55 30.5057 368.432 24.3605 373.924 16.5744Z" fill="#FF8D76"/>
<path d="M316.249 0.0957589C348.321 -1.2088 374.385 10.9717 386.249 27.1207C398.114 43.2697 405.035 82.4888 406.518 94.1887C408.001 105.888 413.274 112.15 418.877 119.895C424.885 128.203 435.191 153.841 424.15 170.979C413.109 188.117 395.12 192.511 375.984 183.118C356.704 190.671 340.322 194.543 309.177 189.298C278.033 184.052 248.131 157.611 240.516 104.488C236.122 73.7277 236.067 36.1565 250.816 16.6018C275.417 9.85935 285.888 1.30419 316.249 0.0957589Z" fill="#FEC272"/>
<path d="M250.891 16.5744C244.299 16.7941 223.207 15.2561 214.418 41.1824C205.63 67.1088 198.839 86.0043 186.954 102.922C175.069 119.84 163.005 150.6 186.954 172.132C210.903 193.665 239.026 188.391 251.989 182.02C264.953 175.648 280.333 165.102 276.598 129.068C272.862 93.0351 261.437 71.0637 260.119 51.2893C258.801 31.515 256.823 24.9235 250.891 16.5744Z" fill="#FF8D76"/>
<path d="M318.096 109.953C323.011 109.953 326.995 105.969 326.995 101.055C326.995 96.1403 323.011 92.1563 318.096 92.1563C313.182 92.1563 309.198 96.1403 309.198 101.055C309.198 105.969 313.182 109.953 318.096 109.953Z" fill="#1C3177"/>
<path d="M390.383 109.953C395.297 109.953 399.281 105.969 399.281 101.055C399.281 96.1403 395.297 92.1563 390.383 92.1563C385.468 92.1563 381.484 96.1403 381.484 101.055C381.484 105.969 385.468 109.953 390.383 109.953Z" fill="#1C3177"/>
<path d="M304.165 78.4584C303.478 75.2314 311.484 71.2628 315.563 68.2829C319.641 65.303 325.786 64.1633 329.02 69.6012C332.254 75.0391 321.172 80.1544 317.087 81.0264C313.002 81.8983 304.893 81.9945 304.165 78.4584Z" fill="#FF8D76"/>
<path d="M399.274 77.25C399.542 74.277 392.559 71.1323 388.913 68.6606C385.267 66.1888 380.063 65.5022 377.852 70.638C375.641 75.7738 385.295 79.7767 388.762 80.3398C392.229 80.9028 398.979 80.5114 399.274 77.25Z" fill="#FF8D76"/>
<path d="M361.353 130.277C361.984 126.569 388.13 125.333 390.383 130.277C392.635 135.22 385.576 147.909 378.326 147.909C371.075 147.909 359.705 139.999 361.353 130.277Z" fill="#1C3177"/>
<path d="M379.019 137.363C379.29 144.408 378.969 151.464 378.058 158.455" stroke="#1C3177" stroke-width="7" stroke-miterlimit="10" stroke-linecap="round"/>
<g style="mix-blend-mode:multiply">
<path d="M277.71 229.698C277.71 229.698 280.786 221.458 277.023 214.05" stroke="#FEC272" stroke-width="7" stroke-miterlimit="10" stroke-linecap="round"/>
</g>
<g style="mix-blend-mode:multiply">
<path d="M301.981 228.05C303.011 223.31 302.355 218.359 300.128 214.05" stroke="#FEC272" stroke-width="7" stroke-miterlimit="10" stroke-linecap="round"/>
</g>
<g style="mix-blend-mode:multiply">
<path d="M428.75 229.698C428.75 229.698 431.826 221.458 428.063 214.05" stroke="#FEC272" stroke-width="7" stroke-miterlimit="10" stroke-linecap="round"/>
</g>
<g style="mix-blend-mode:multiply">
<path d="M453.022 228.05C454.055 223.311 453.402 218.359 451.175 214.05" stroke="#FEC272" stroke-width="7" stroke-miterlimit="10" stroke-linecap="round"/>
</g>
<path opacity="0.53" d="M493.944 313.581C502.183 306.564 530.821 307.25 547.588 307.25C564.355 307.25 597.409 307.999 606.506 319.534C615.604 331.069 590.344 343.345 551.241 343.345C512.139 343.345 469.507 334.413 493.944 313.581Z" fill="#99ADF9"/>
</svg>
